<svg viewBox="0 0 200 200" xmlns="http://www.w3.org/2000/svg">
  <circle cx="100" cy="100" r="100" fill="#B94158"/>
  <path d="M 60 160 Q 55 155 58 145 Q 62 130 75 100 Q 85 75 95 55 Q 100 45 105 40 Q 108 38 110 40 Q 115 45 125 75 Q 135 105 145 145 Q 148 155 145 158 Q 142 162 140 158 Q 130 130 120 95 Q 115 78 110 70 Q 107 65 105 70 Q 100 80 92 100 Q 82 125 75 150 Q 72 158 68 160 Q 64 162 60 160 Z" fill="none" stroke="white" stroke-width="3" stroke-linecap="round"/>
  <path d="M 130 30 Q 145 50 155 90 Q 165 130 170 170" fill="none" stroke="white" stroke-width="3" stroke-linecap="round"/>
</svg>