<svg viewBox="0 0 200 200" xmlns="http://www.w3.org/2000/svg">
  <rect width="200" height="200" fill="#B94158"/>
  <path d="M 50 170 Q 45 165 48 155 Q 52 140 65 110 Q 75 85 85 65 Q 90 55 95 50 Q 98 48 100 50 Q 105 55 115 85 Q 125 115 135 155 Q 138 165 135 168 Q 132 172 130 168 Q 120 140 110 105 Q 105 88 100 80 Q 97 75 95 80 Q 90 90 82 110 Q 72 135 65 160 Q 62 168 58 170 Q 54 172 50 170 Z" fill="none" stroke="white" stroke-width="3" stroke-linecap="round"/>
  <path d="M 120 20 Q 135 40 145 80 Q 155 120 160 160 Q 162 175 165 185" fill="none" stroke="white" stroke-width="3" stroke-linecap="round"/>
</svg>